<svg xmlns="http://www.w3.org/2000/svg" viewBox="0 0 24 24" fill="none" stroke="currentColor" stroke-width="2">
  <!-- Rocket body -->
  <path d="M12 2 L16 6 L16 14 L14 16 L10 16 L8 14 L8 6 Z" fill="none"/>
  
  <!-- Rocket nose -->
  <path d="M12 2 L10 6 L14 6 Z" fill="currentColor"/>
  
  <!-- Rocket fins -->
  <path d="M8 14 L6 16 L8 16 Z" fill="none"/>
  <path d="M16 14 L18 16 L16 16 Z" fill="none"/>
  
  <!-- Rocket window -->
  <circle cx="12" cy="9" r="2" fill="none"/>
  <circle cx="12" cy="9" r="1" fill="currentColor"/>
  
  <!-- Rocket flames -->
  <path d="M10 16 L9 18 L10 20 L11 18 L12 20 L13 18 L14 20 L15 18 L14 16" fill="none"/>
  
  <!-- Flame inner -->
  <path d="M10.5 16 L11 18 L12 19 L13 18 L13.5 16" fill="currentColor" opacity="0.7"/>
  
  <!-- Stars -->
  <circle cx="6" cy="4" r="0.5" fill="currentColor"/>
  <circle cx="18" cy="6" r="0.5" fill="currentColor"/>
  <circle cx="4" cy="10" r="0.5" fill="currentColor"/>
  <circle cx="20" cy="12" r="0.5" fill="currentColor"/>
  
  <!-- Rocket details -->
  <line x1="10" y1="11" x2="14" y2="11"/>
  <line x1="10" y1="13" x2="14" y2="13"/>
</svg>
